<?xml version="1.0" standalone="no"?>
<!DOCTYPE svg PUBLIC "-//W3C//DTD SVG 20010904//EN"
 "http://www.w3.org/TR/2001/REC-SVG-20010904/DTD/svg10.dtd">
<svg version="1.0" xmlns="http://www.w3.org/2000/svg"
 width="700.000000pt" height="700.000000pt" viewBox="0 0 700.000000 700.000000"
 preserveAspectRatio="xMidYMid meet">
<metadata>
Created by potrace 1.11, written by Peter Selinger 2001-2013
</metadata>
<g transform="translate(0.000000,700.000000) scale(0.100000,-0.100000)"
fill="#000000" stroke="none">
<path d="M4 6831 c-2 -2 -4 -1503 -4 -3336 l0 -3331 3500 0 3500 0 -2 3336 -3
3335 -3493 0 c-1921 1 -3495 -1 -3498 -4z m6541 -3331 l0 -2883 -3045 -1
-3045 0 -2 2879 c-1 1584 0 2882 2 2885 2 3 1373 5 3047 5 l3043 -1 0 -2884z"/>
<path d="M1386 5631 c-1 -3 -2 -328 -2 -721 l1 -715 658 0 c577 0 657 -2 658
-15 0 -8 1 -374 2 -812 0 -562 4 -798 11 -801 10 -3 423 -1 436 2 4 1 5 2053
1 2072 0 3 -296 5 -656 5 -576 -1 -655 1 -656 14 -6 104 0 513 9 518 13 9
3444 9 3457 0 6 -4 10 -171 9 -472 l-1 -466 227 0 226 0 0 698 -1 697 -2188 1
c-1203 0 -2189 -2 -2191 -5z"/>
<path d="M4089 4505 c-1 -5 -2 -437 -4 -960 -1 -522 -5 -972 -9 -1000 -70
-499 -442 -894 -914 -969 -84 -14 -284 -14 -347 -1 -178 36 -362 119 -485 220
-54 44 -158 153 -197 205 -102 140 -183 326 -209 480 -3 14 -7 37 -10 52 -3
15 -7 87 -9 160 -3 73 -5 136 -5 139 0 3 -102 5 -226 5 l-226 0 3 -140 c2 -78
6 -159 10 -181 4 -22 9 -60 12 -85 18 -151 115 -420 202 -555 19 -31 35 -58
35 -60 0 -16 145 -192 214 -260 290 -287 651 -440 1052 -444 72 -1 160 3 195
8 35 5 81 12 101 15 21 3 72 15 113 26 521 140 934 554 1090 1095 14 50 28
105 31 124 3 18 8 43 10 55 16 80 19 258 19 1116 l0 964 -223 1 c-141 0 -222
-4 -223 -10z"/>
</g>
</svg>
